<?xml version="1.0" standalone="no"?>
<!DOCTYPE svg PUBLIC "-//W3C//DTD SVG 20010904//EN"
 "http://www.w3.org/TR/2001/REC-SVG-20010904/DTD/svg10.dtd">
<svg version="1.0" xmlns="http://www.w3.org/2000/svg"
 width="120.000000pt" height="120.000000pt" viewBox="0 0 120.000000 120.000000"
 preserveAspectRatio="xMidYMid meet">
<metadata>
Created by potrace 1.11, written by Peter Selinger 2001-2013
</metadata>
<g transform="translate(0.000000,120.000000) scale(0.100000,-0.100000)"
fill="#000000" stroke="none">
<path d="M100 561 l0 -341 85 0 85 0 0 125 0 125 29 0 c26 0 32 -8 87 -125
l58 -125 97 0 97 0 -73 142 -73 142 33 23 c80 54 99 191 38 277 -16 23 -49 52
-73 66 -42 24 -55 25 -217 28 l-173 4 0 -341z m311 171 c15 -13 22 -30 22 -51
0 -48 -23 -64 -98 -69 l-65 -4 0 71 0 71 59 0 c42 0 65 -5 82 -18z"/>
<path d="M590 893 c0 -5 50 -158 111 -340 l111 -333 61 0 62 0 109 328 c60
180 111 333 114 340 3 10 -15 12 -84 10 l-88 -3 -53 -179 c-29 -98 -55 -181
-57 -183 -4 -4 -38 99 -96 295 l-22 72 -84 0 c-46 0 -84 -3 -84 -7z"/>
</g>
</svg>
